<?xml version="1.0" encoding="UTF-8"?>
<svg id="Capa_1" data-name="Capa 1" xmlns="http://www.w3.org/2000/svg" viewBox="0 0 24 24">
  <defs>
    <style>
      .cls-1 {
        fill: #754353;
      }
    </style>
  </defs>
  <path class="cls-1" d="m15.6,8.72v11.65h-6.88v-11.65c0-1.7-2.73-1.71-2.73,0v12.97c0,.72.63,1.32,1.36,1.32h9.61c.74,0,1.36-.61,1.36-1.32v-12.97c0-1.7-2.73-1.71-2.73,0Z"/>
  <path class="cls-1" d="m14.12,13.43h-4.05c-.36,0-.7.3-.68.66.02.36.3.66.68.66h4.05c.36,0,.7-.3.68-.66-.02-.36-.3-.66-.68-.66Z"/>
  <path class="cls-1" d="m20.35,4.51h-2.86c.13-.45.07-.95-.32-1.27-.52-.44-1.05-.88-1.57-1.33-.2-.17-.39-.34-.6-.5-.43-.35-.85-.39-1.36-.39h-2.59c-.22,0-.45-.01-.68,0-.57.04-.92.35-1.31.69-.6.52-1.2,1.04-1.8,1.56-.35.3-.44.8-.34,1.24h-2.94c-1.76,0-1.76,2.65,0,2.65h16.37c1.75,0,1.76-2.65,0-2.65Zm-9.45-.84h2.64c.33.28.67.56,1,.84h-4.61c.32-.28.65-.56.97-.84Z"/>
  <path class="cls-1" d="m10.64,16.4h-.5c-.36,0-.7.3-.68.66.02.36.3.66.68.66h4.05c.36,0,.7-.3.68-.66-.02-.36-.3-.66-.68-.66h-3.55Z"/>
</svg>