<?xml version="1.0" encoding="UTF-8"?>
<svg id="Capa_1" data-name="Capa 1" xmlns="http://www.w3.org/2000/svg" viewBox="0 0 24 24">
  <defs>
    <style>
      .cls-1 {
        fill: #754353;
      }
    </style>
  </defs>
  <path class="cls-1" d="m22.97,14.75c0-1.97,0-3.95-.03-5.92-.03-2.16-1.47-3.45-3.58-3.61-3.62-.27-7.24-.55-10.86-.82-.38-1.24-1.38-2.13-2.64-2.56-1.06-.36-2.25-.4-3.37-.29-.31.03-.61.06-.91.12-.44.09-.69.6-.57,1,.12.45.58.65,1.01.57.05,0,.09-.02.14-.02.04,0,.07-.01.11-.02.03,0,.05,0,.08,0,.43-.05.86-.07,1.28-.06.26,0,.52.02.78.05.01,0,0,0,.02,0,.07.01.14.02.2.03.14.02.28.05.41.09.13.03.26.07.38.11.06.02.12.05.18.07.03.01.06.03.09.04.11.05.22.11.32.17.06.04.12.08.18.11.01,0,.03.02.04.03,0,0,0,0,.02.02.11.1.21.21.32.32,0,0,0,0,0,0,.02.02.03.05.05.07.05.07.09.14.13.21.02.03.07.15.09.18.02.06.04.11.06.17.04.13.06.26.09.39-.55,3.22-1.12,6.45-1.63,9.67-.36,2.28,1.17,4.09,3.52,4.11,1.88.01,3.76,0,5.64,0,1.67,0,3.36.05,5.03,0,1.32-.04,2.51-.7,3.09-1.9.36-.75.33-1.52.33-2.32Zm-3.15,2.59c-1.26.16-2.63,0-3.89,0h-6c-.42,0-.85.02-1.27,0-1.09-.06-1.83-.9-1.72-1.98.19-1.79.6-3.58.9-5.35.23-1.33.45-2.67.68-4,3.02.23,6.03.46,9.05.69,1.25.1,3.27-.12,3.68,1.43.07.25.08.53.08.82h-10.52c-1.06,0-1.06,1.62,0,1.62h10.5c0,.76,0,1.52.01,2.29,0,1.4.54,4.21-1.49,4.47Z"/>
  <path class="cls-1" d="m10.58,19.24c-.91,0-1.65.73-1.65,1.62s.74,1.62,1.65,1.62,1.65-.73,1.65-1.62-.74-1.62-1.65-1.62Zm0,2.17c-.3,0-.55-.24-.55-.54s.25-.54.55-.54.55.24.55.54-.25.54-.55.54Z"/>
  <path class="cls-1" d="m17.17,19.24c-.91,0-1.65.73-1.65,1.62s.74,1.62,1.65,1.62,1.65-.73,1.65-1.62-.74-1.62-1.65-1.62Zm0,2.17c-.3,0-.55-.24-.55-.54s.25-.54.55-.54.55.24.55.54-.25.54-.55.54Z"/>
</svg>