<?xml version="1.0" encoding="UTF-8"?>
<svg id="Capa_1" data-name="Capa 1" xmlns="http://www.w3.org/2000/svg" viewBox="0 0 24 24">
  <defs>
    <style>
      .cls-1 {
        fill: #754353;
      }
    </style>
  </defs>
  <path class="cls-1" d="m9.9,2.16c-.12-.18-.44-.28-.64-.14-2.25,1.47-3.53,3.76-3.61,6.25-.01,1.31.31,2.57.95,3.74.11.2.44.26.64.14,3.74-2.13,4.94-6.56,2.66-10Zm-2.7,8.99c-.42-.92-.63-1.9-.62-2.91.07-2.02,1.05-3.93,2.77-5.22,1.58,2.82.66,6.25-2.15,8.13Z"/>
  <path class="cls-1" d="m4.97,5.5c-.14-.07-.36-.04-.43.1-.8,1.53-.74,3.26.11,4.76.46.78,1.11,1.43,1.91,1.94.14.09.35.02.43-.1,1.45-2.36.57-5.33-2.02-6.7Zm1.64,6.11c-.58-.42-1.06-.94-1.41-1.54-.69-1.22-.79-2.64-.24-3.9,1.95,1.21,2.64,3.51,1.65,5.44Z"/>
  <path class="cls-1" d="m19.97,17.83c.03-.14-.09-.31-.26-.33-1.87-.14-3.64.53-4.9,1.77-.65.67-1.09,1.44-1.34,2.3-.04.15.1.31.26.33,2.96.39,5.74-1.4,6.24-4.07Zm-5.77,3.54c.23-.64.6-1.22,1.1-1.74,1.02-1.01,2.46-1.6,3.97-1.58-.57,2.07-2.71,3.46-5.07,3.31Z"/>
  <path class="cls-1" d="m17.79,12.22c-.1-.19-.4-.32-.62-.2-2.4,1.25-3.94,3.41-4.31,5.88-.16,1.3.02,2.58.52,3.81.09.21.41.3.62.2,3.97-1.78,5.67-6.07,3.79-9.7Zm-3.71,8.69c-.31-.96-.41-1.95-.28-2.95.3-2,1.5-3.81,3.35-4.94,1.25,2.95-.05,6.27-3.07,7.88Z"/>
  <path class="cls-1" d="m14.42,3.99c-2,4.76-4,9.52-6,14.28-.28.68-.57,1.35-.85,2.03-.38.9,1.23,1.29,1.61.4,2-4.76,4-9.52,6-14.28.28-.68.57-1.35.85-2.03.38-.9-1.23-1.29-1.61-.4h0Z"/>
</svg>