<?xml version="1.0" encoding="UTF-8"?>
<svg id="Capa_1" data-name="Capa 1" xmlns="http://www.w3.org/2000/svg" viewBox="0 0 24 24">
  <defs>
    <style>
      .cls-1 {
        fill: #744353;
      }
    </style>
  </defs>
  <path class="cls-1" d="m12.18,23.12l-6.16-9.42c-.96-1.29-1.36-2.62-1.36-4.57C4.66,4.63,7.96,1.12,12.16,1.12s7.5,3.52,7.5,8c0,.11-.02,2.71-1.85,5.3l-5.63,8.7Zm-.02-20.44c-2.93,0-5.41,2.95-5.41,6.44,0,1.68.31,2.76,1.13,3.85l4.29,6.57,3.78-5.84c1.59-2.24,1.62-4.56,1.62-4.58,0-3.49-2.48-6.44-5.41-6.44Z"/>
  <ellipse class="cls-1" cx="12.16" cy="8.83" rx="2.1" ry="1.57"/>
</svg>