<?xml version="1.0" encoding="UTF-8"?>
<svg id="Capa_1" data-name="Capa 1" xmlns="http://www.w3.org/2000/svg" viewBox="0 0 24 24">
  <defs>
    <style>
      .cls-1 {
        fill: #754353;
      }
    </style>
  </defs>
  <path class="cls-1" d="m22.92,7.96c-.79-2.47-2.97-3.61-5.35-3.61h-6.07c-1.71,0-3.42-.04-5.13,0-2.83.06-5.05,2.26-5.13,5.22-.05,1.78-.15,3.67.04,5.44.3,2.78,2.6,4.61,5.21,4.64,3.88.03,7.76,0,11.63,0,2.96-.1,5.01-2.48,5.04-5.48,0-1.09,0-2.19,0-3.28,0-.98.06-1.99-.25-2.93Zm-1.29,6.77c-.15,1.91-1.69,3.28-3.5,3.34h-9.52c-1.29,0-2.85.22-4.02-.45-2.13-1.22-1.81-3.7-1.81-5.83s-.14-4.76,2.36-5.66c1.16-.42,2.69-.2,3.9-.2h6.09c1.17,0,2.47-.16,3.64.05,1.7.31,2.83,1.85,2.88,3.59.03.88,0,1.76,0,2.63s.06,1.69,0,2.52Z"/>
  <path class="cls-1" d="m18.07,8.15c-1.67.85-3.34,1.69-5.01,2.54-.28.14-.54.31-.86.31-.32,0-.57-.14-.85-.28-1-.48-2-.96-3-1.43-.8-.38-1.59-.76-2.39-1.14-.89-.42-1.67.94-.77,1.37,1.78.85,3.55,1.7,5.33,2.54,1,.48,1.9.69,2.96.17.91-.44,1.8-.91,2.7-1.36.89-.45,1.78-.9,2.67-1.35.88-.45.11-1.81-.77-1.37Z"/>
</svg>