<?xml version="1.0" encoding="UTF-8"?>
<svg id="Capa_1" data-name="Capa 1" xmlns="http://www.w3.org/2000/svg" viewBox="0 0 24 24">
  <defs>
    <style>
      .cls-1 {
        fill: #754353;
      }
    </style>
  </defs>
  <path class="cls-1" d="m1.77,4.57c-.12-.07-.3-.03-.36.1-.67,1.47-.62,3.13.09,4.57.39.75.93,1.37,1.6,1.86.12.08.3.02.36-.1,1.21-2.27.48-5.12-1.69-6.43Zm1.37,5.87c-.49-.41-.89-.91-1.18-1.48-.57-1.17-.66-2.53-.2-3.75,1.63,1.16,2.21,3.37,1.38,5.23Z"/>
  <path class="cls-1" d="m19.49,11.68s0,0,0,0c0,0,0,0,0,.01,0,0,0-.01,0-.02Z"/>
  <path class="cls-1" d="m22.9,14.73c0-.92.08-1.74-.38-2.57-.57-1.02-1.14-2.03-1.72-3.05-.28-.49-.52-.98-1.04-1.24-.46-.22-1.03-.18-1.54-.17v-1.59c0-.26-.22-.49-.47-.49h-5.04c.24-.71.41-1.46.46-2.25.02-.25-.18-.52-.44-.52-2.8.05-5.32,1.45-6.98,3.76-.85,1.23-1.39,2.62-1.62,4.11-.04.26.2.51.44.52,1.27.06,2.48-.19,3.58-.66v6.32c0,.6-.05,1.2.3,1.72.54.79,1.47.75,2.32.73.05.17.11.33.2.49.45.77,1.31,1.15,2.16.99.75-.14,1.33-.75,1.54-1.48h1.75c.05.17.11.34.2.49.45.77,1.31,1.15,2.16.99.75-.14,1.33-.75,1.54-1.48.31,0,.62.01.93,0,.87-.04,1.56-.7,1.64-1.61.08-.99,0-2.01,0-3.01ZM6.53,7.15c1.35-1.87,3.39-3.09,5.63-3.28-.51,3.61-3.46,6.3-6.98,6.4.24-1.12.7-2.17,1.35-3.12Zm5.79-.58s.08.03.12.03h4.83c0,1.88.01,3.75,0,5.63,0,.71-.33,1.36-.97,1.67-.36.17-.74.16-1.12.16h-6.09v-3.73c0-.08-.01-.14-.04-.2,1.39-.82,2.54-2.06,3.27-3.55Zm1.5,12.32s0,0,0,0c-.01.07-.03.14-.05.21-.01.04-.02.07-.04.11,0,0,0,0,0,.01-.04.07-.08.15-.13.22,0,0,0,0,0,.01,0,0,0,0,0,0-.02.03-.04.05-.07.08-.02.02-.1.09-.11.1-.05.04-.1.07-.15.1-.02.01-.05.03-.07.04-.02,0-.02.01-.03.01-.01,0-.02,0-.03.01-.07.02-.13.04-.2.06-.01,0-.04,0-.06,0-.02,0-.05,0-.07,0-.07,0-.15,0-.22,0,0,0,0,0,0,0,0,0,0,0-.02,0-.04,0-.08-.02-.12-.03-.04-.01-.08-.03-.12-.04,0,0,0,0,0,0-.06-.03-.12-.06-.17-.1-.03-.02-.06-.04-.08-.06,0,0,0,0,0,0,0,0,0,0-.01-.01-.06-.06-.12-.12-.17-.18,0,0,0,0,0,0-.02-.04-.05-.07-.07-.11-.02-.03-.1-.21-.06-.11-.03-.07-.05-.14-.06-.21,0-.03-.01-.06-.02-.09,0-.02,0-.02,0-.03,0-.01,0-.03,0-.04,0-.07,0-.14,0-.2,0-.02.02-.16,0-.05,0-.03,0-.06.02-.09.02-.07.04-.14.06-.21,0-.02,0-.01,0-.02,0,0,0,0,.01-.02.02-.04.04-.08.06-.11.02-.03.04-.06.06-.09,0,0,.01-.02.02-.03.04-.05.08-.1.13-.14,0,0,.03-.03.05-.04.02-.01.05-.04.05-.04.07-.05.14-.09.21-.12,0,0,0,0,0,0,.04-.01.08-.03.12-.04.03,0,.05-.01.08-.02,0,0,.04,0,.06-.01.02,0,.07,0,.07,0,.04,0,.07,0,.11,0,.04,0,.07,0,.11,0,.02,0,.02,0,.02,0,0,0,0,0,.02,0,.08.02.16.04.24.07,0,0,0,0,.01,0,0,0,0,0,0,0,.04.02.09.04.13.07.02.01.05.03.07.05.01,0,.03.02.04.03,0,0,0,0,.03.02.05.05.1.1.14.15.01.01.01.01.02.02,0,0,0,0,.01.02.02.04.05.07.07.11.02.04.04.07.06.11,0,.01,0,.02.01.02,0,0,0,0,0,.02.03.08.05.17.07.25,0,0,0,.01,0,.02,0,.05,0,.11,0,.16,0,.05,0,.09,0,.14Zm5.65,0s0,0,0,0c-.01.07-.03.14-.05.21-.01.04-.02.07-.04.11,0,0,0,0,0,.01-.04.07-.08.15-.13.22,0,0,0,0,0,.01,0,0,0,0,0,0-.02.03-.04.05-.07.08-.02.02-.1.09-.11.1-.05.04-.1.07-.15.1-.02.01-.05.03-.07.04-.02,0-.02.01-.03.01-.01,0-.02,0-.03.01-.07.02-.13.04-.2.06-.01,0-.04,0-.06,0-.02,0-.05,0-.07,0-.07,0-.15,0-.22,0,0,0,0,0,0,0,0,0,0,0-.02,0-.04,0-.08-.02-.12-.03-.04-.01-.08-.03-.12-.04,0,0,0,0,0,0-.06-.03-.12-.06-.17-.1-.03-.02-.06-.04-.08-.06,0,0,0,0,0,0,0,0,0,0-.01-.01-.06-.06-.12-.12-.17-.18,0,0,0,0,0,0-.02-.04-.05-.07-.07-.11-.02-.03-.1-.21-.06-.11-.03-.07-.05-.14-.06-.21,0-.03-.01-.06-.02-.09,0-.02,0-.02,0-.03,0-.01,0-.03,0-.04,0-.07,0-.14,0-.2,0-.02.02-.16,0-.05,0-.03.01-.06.02-.09.02-.07.04-.14.06-.21,0-.02,0-.01,0-.02,0,0,0,0,.01-.02.02-.04.04-.08.06-.11.02-.03.04-.06.06-.09,0,0,.01-.02.02-.03.04-.05.08-.1.13-.14,0,0,.03-.03.05-.04.02-.01.05-.04.05-.04.07-.05.14-.09.21-.12,0,0,0,0,0,0,.04-.01.08-.03.12-.04.03,0,.05-.01.08-.02,0,0,.04,0,.06-.01.02,0,.07,0,.07,0,.04,0,.07,0,.11,0,.04,0,.07,0,.11,0,.02,0,.02,0,.02,0,0,0,0,0,.02,0,.08.02.16.04.24.07,0,0,0,0,.01,0,0,0,0,0,0,0,.04.02.09.04.13.07.02.01.05.03.07.05.01,0,.03.02.04.03,0,0,0,0,.03.02.05.05.1.1.14.15.01.01.01.01.02.02,0,0,0,0,.01.02.02.04.05.07.07.11.02.04.04.07.06.11,0,.01,0,.02.01.02,0,0,0,0,0,.02.03.08.05.17.07.25,0,0,0,.01,0,.02,0,.05,0,.11,0,.16,0,.05,0,.09,0,.14Zm2.49-1.66c0,.53-.08,1.07-.71,1.13-.29.03-.58.02-.88.01-.14-.73-.62-1.33-1.31-1.6-.77-.3-1.72-.04-2.24.62-.23.29-.37.62-.44.97h-1.66c-.14-.72-.62-1.33-1.31-1.59-.77-.3-1.72-.04-2.24.62-.23.29-.37.62-.44.97h-.54c-.37,0-.76.04-.99-.33-.21-.33-.11-.94-.11-1.31v-1.7h6.04c.4,0,.8.01,1.2-.11.93-.28,1.66-1.1,1.84-2.09.07-.39.05-.78.05-1.17v-2.98c.29,0,.58-.02.87,0,.47.05.63.42.83.79.19.34.38.68.57,1.02-.2.03-.39.05-.59.08-.25.03-.51.05-.75.16-.44.21-.65.66-.58,1.15.02.15.04.3.06.45.08.58.15,1.15.23,1.73.02.18.04.35.07.53.07.42.4.75.81.83.46.09,1,0,1.45-.09.27-.05.53-.13.78-.25v2.15Zm0-3.25c-.49.39-1.27.48-1.91.49-.09,0-.12,0-.17-.02.07.02-.08-.02,0,0,0,0-.01,0-.02-.01h0s0-.05,0,0c0,.01,0,0,0,0,0-.02-.02-.1-.02-.13-.02-.16-.04-.32-.06-.47-.07-.52-.14-1.05-.2-1.57-.02-.18-.05-.37-.07-.55,0,0,0-.02,0-.03,0,0,0,0,0,0,0-.04,0-.03,0,0,0-.02,0-.05,0-.05,0,0,0,.04.01.06.02-.03.04-.06.09-.08.02,0,.1-.02.11-.02.03,0,.06,0,.09-.01.13-.02.26-.04.38-.05.21-.03.42-.06.63-.09.07,0,.13-.05.18-.09.18.32.36.64.54.96.14.25.36.53.43.82.07.27.04.59.03.87Z"/>
  <polygon class="cls-1" points="19.86 14.44 19.86 14.44 19.86 14.44 19.86 14.44"/>
</svg>