<?xml version="1.0" encoding="UTF-8"?>
<svg id="Capa_1" data-name="Capa 1" xmlns="http://www.w3.org/2000/svg" viewBox="0 0 24 24">
  <defs>
    <style>
      .cls-1 {
        fill: #754353;
      }
    </style>
  </defs>
  <path class="cls-1" d="m21.99,9.46c0-.66.05-1.35-.05-2-.25-1.76-1.74-2.91-3.45-2.97-.37-.01-.74,0-1.11,0v-2.34c0-.51-.45-1.01-.98-.98-.53.02-.98.43-.98.98v2.33c-1.11,0-2.22.03-3.33.03-1.48,0-2.97-.02-4.45-.01v-2.34c0-.51-.45-1.01-.98-.98-.53.02-.98.43-.98.98v2.35s-.07,0-.11,0c-1.56.04-2.99.94-3.43,2.51-.21.74-.13,1.58-.13,2.34v8.06c0,.8-.03,1.61,0,2.41.06,1.73,1.2,3.23,2.95,3.48.73.11,1.51.05,2.25.05h11.33c1.94-.09,3.37-1.53,3.45-3.49.03-.72,0-1.44,0-2.16v-8.23ZM4.49,6.82c.35-.3.77-.36,1.21-.36.02.5.45.98.97.95.52-.02.95-.42.97-.95h7.79c.02.5.45.98.97.95.52-.02.96-.42.97-.96,1.3-.01,2.65.05,2.67,1.79,0,.41,0,.81,0,1.22-.16-.2-.39-.33-.72-.33H4.69c-.33,0-.56.14-.72.33v-.56c0-.74-.1-1.53.52-2.07Zm15.55,12.31c0,1.05-.15,2.18-1.5,2.24H6.52c-.56,0-1.27.1-1.77-.19-.81-.45-.77-1.26-.77-2.05v-8.37c.16.2.39.33.72.33h14.62c.33,0,.56-.14.72-.33,0,1.62,0,3.23,0,4.85v3.52Z"/>
  <ellipse class="cls-1" cx="6.29" cy="13.92" rx="1.37" ry="1.38"/>
  <ellipse class="cls-1" cx="9.68" cy="13.83" rx="1.37" ry="1.38"/>
  <ellipse class="cls-1" cx="13.11" cy="13.83" rx="1.37" ry="1.38"/>
  <ellipse class="cls-1" cx="6.29" cy="17.43" rx="1.37" ry="1.38"/>
</svg>