<?xml version="1.0" encoding="UTF-8"?>
<svg id="Capa_1" data-name="Capa 1" xmlns="http://www.w3.org/2000/svg" viewBox="0 0 24 24">
  <defs>
    <style>
      .cls-1 {
        fill: #754353;
      }
    </style>
  </defs>
  <path class="cls-1" d="m13.11,16.4c.4,0,.4-.62,0-.62h-2.33v-2.32c0-.4-.63-.4-.63,0v2.32h-2.36c-.4,0-.4.62,0,.62h2.36v2.32c0,.4.63.4.63,0v-2.32h2.33Z"/>
  <path class="cls-1" d="m12.5,17.2c-.47.11-.76.57-.66,1.03s.57.75,1.04.65.76-.57.66-1.03-.57-.75-1.04-.65Z"/>
  <path class="cls-1" d="m14.83,17.2c-.47.11-.76.57-.66,1.03s.57.75,1.04.65.76-.57.66-1.03-.57-.75-1.04-.65Z"/>
  <path class="cls-1" d="m17.15,17.2c-.47.11-.76.57-.66,1.03s.57.75,1.04.65.76-.57.66-1.03-.57-.75-1.04-.65Z"/>
  <path class="cls-1" d="m16.09,7.75c.3-.3.59-.6.89-.9.12-.12.23-.23.35-.35.21-.21-.12-.54-.34-.33-.41.42-.82.83-1.24,1.25-.3-.3-.61-.59-.91-.89-.12-.11-.24-.23-.35-.34-.22-.21-.55.12-.33.33l1.27,1.23c-.3.3-.59.6-.89.9-.12.12-.23.23-.35.35-.21.21.12.54.34.33.41-.42.82-.83,1.24-1.25l.9.87c.12.11.24.23.35.34.22.21.55-.12.33-.33-.42-.4-.84-.81-1.25-1.21Z"/>
  <path class="cls-1" d="m21.74,7.14c-.97-.94-1.93-1.87-2.9-2.81-.81-.79-1.61-1.6-2.44-2.37-1.38-1.28-3.43-1.3-4.8,0-.83.79-1.73,1.6-2.44,2.5-1.11,1.4-.85,3.3.39,4.52.34.34.69.67,1.04,1.01h-.41c-1.52,0-3.04-.03-4.55,0-2.52.05-4.49,1.92-4.55,4.43-.04,1.51-.14,3.12.03,4.62.26,2.36,2.31,3.92,4.63,3.94,3.44.03,6.89,0,10.33,0,2.63-.08,4.45-2.1,4.47-4.65,0-.93,0-1.85,0-2.78,0-.62.03-1.24-.07-1.85.33-.33.65-.66.98-.99.44-.45.92-.88,1.21-1.45.74-1.49.21-3.01-.92-4.11Zm-2.57,11.66c-.14,1.62-1.5,2.78-3.11,2.83H7.6c-1.14,0-2.54.18-3.57-.38-1.9-1.03-1.61-3.14-1.61-4.94s-.12-4.04,2.1-4.81c1.03-.36,2.39-.17,3.46-.17h3.99c1.04,1.01,2.08,2.02,3.12,3.03,1.2,1.09,2.79,1.18,4.09.42,0,.63,0,1.25,0,1.88,0,.71.05,1.43,0,2.14Zm-2.62-7.43c.05.14.13.26.27.35.23.14.5.12.71-.02.14.08.27.16.4.26-.02.03-.05.05-.07.08-.19.3-.09.7.21.89.22.13.49.12.69,0,.13.23.22.49.29.75-.02.02-.05.05-.07.07-.94.8-2.29.71-3.18-.1-.79-.77-1.59-1.54-2.38-2.31,1.01,0,2.12-.12,3.12.04Zm4.76.02c-.38.41-.79.8-1.19,1.2,0,0,0,0,0,0-.68-1.47-2.01-2.29-3.56-2.52.05-.25-.06-.52-.3-.66-.31-.19-.71-.09-.9.21-.07.12-.09.24-.08.37h-3.23c-.26-.25-.52-.5-.77-.75-.61-.59-1.46-1.22-1.71-2.06-.47-1.54.81-2.52,1.77-3.49,1-1.01,2.09-2.23,3.68-1.49.74.35,1.37,1.15,1.95,1.71.97.94,1.93,1.88,2.9,2.81.56.54,1.25,1.07,1.71,1.71.67.93.51,2.15-.25,2.97Z"/>
</svg>