<?xml version="1.0" encoding="UTF-8"?>
<svg id="Capa_1" data-name="Capa 1" xmlns="http://www.w3.org/2000/svg" viewBox="0 0 24 24">
  <defs>
    <style>
      .cls-1 {
        fill: #754353;
      }
    </style>
  </defs>
  <circle class="cls-1" cx="17.82" cy="6.19" r="1.29"/>
  <path class="cls-1" d="m12.09,6.56c-2.99,0-5.42,2.43-5.42,5.42s2.43,5.42,5.42,5.42,5.42-2.43,5.42-5.42-2.43-5.42-5.42-5.42Zm0,8.89c-1.91,0-3.47-1.56-3.47-3.47s1.56-3.47,3.47-3.47,3.47,1.56,3.47,3.47-1.56,3.47-3.47,3.47Z"/>
  <path class="cls-1" d="m16.39,22.97H7.61c-3.64,0-6.61-2.96-6.61-6.61V7.58C1,3.94,3.96.97,7.61.97h8.78c3.64,0,6.61,2.96,6.61,6.61v8.78c0,3.64-2.96,6.61-6.61,6.61ZM7.61,3.04c-2.5,0-4.54,2.04-4.54,4.54v8.78c0,2.5,2.04,4.54,4.54,4.54h8.78c2.5,0,4.54-2.04,4.54-4.54V7.58c0-2.5-2.04-4.54-4.54-4.54H7.61Z"/>
</svg>