<?xml version="1.0" encoding="UTF-8"?>
<svg id="Capa_1" data-name="Capa 1" xmlns="http://www.w3.org/2000/svg" viewBox="0 0 24 24">
  <defs>
    <style>
      .cls-1 {
        fill: #754353;
      }
    </style>
  </defs>
  <path class="cls-1" d="m21.44,10.78c-.06-4.06-2.65-7.71-6.63-9.16C10.78.15,6.04,1.37,3.32,4.56.62,7.72.22,12.27,2.42,15.79c2.19,3.51,6.49,5.33,10.68,4.61,4.83-.83,8.27-4.99,8.34-9.62Zm-7.27,7.84c-3.45,1.18-7.37.14-9.69-2.56-2.31-2.68-2.6-6.58-.74-9.56,1.85-2.96,5.54-4.57,9.09-3.92,4.11.75,7.04,4.22,7.09,8.19-.05,3.47-2.3,6.66-5.75,7.84Z"/>
  <path class="cls-1" d="m22.78,21.76c-1.04-1-2.09-2-3.13-3-.15-.14-.3-.28-.45-.43-.28-.27-.8-.29-1.08,0-.28.29-.3.74,0,1.03,1.04,1,2.09,2,3.13,3,.15.14.3.28.45.43.28.27.8.29,1.08,0,.28-.29.3-.74,0-1.03Z"/>
</svg>