<?xml version="1.0" encoding="UTF-8"?>
<svg id="Capa_1" data-name="Capa 1" xmlns="http://www.w3.org/2000/svg" viewBox="0 0 24 24">
  <defs>
    <style>
      .cls-1 {
        fill: #754353;
      }
    </style>
  </defs>
  <path class="cls-1" d="m11.97,5.9c-.2.65-.2,1.31-.04,1.91,1.27-.36,2.32-1.27,2.69-2.51.21-.69.17-1.39-.06-2.03-1.21.42-2.21,1.37-2.59,2.62Z"/>
  <path class="cls-1" d="m10.53,4.31c.22.49.56.91.98,1.22.61-.76.79-1.77.37-2.71-.23-.52-.63-.95-1.11-1.26-.54.78-.67,1.79-.25,2.74Z"/>
  <path class="cls-1" d="m12.25,2.47c.03.3.13.57.3.81.47-.32.76-.84.71-1.41-.03-.32-.16-.61-.36-.84-.44.34-.7.87-.65,1.44Z"/>
  <path class="cls-1" d="m22.28,13.66c-.87-.51-1.75-1.01-2.62-1.52.79-.52,1.58-1.03,2.38-1.55.29-.19.4-.66,0-.82-2.15-.88-4.3-1.76-6.45-2.64-.24-.1-.44-.07-.65.07-.83.57-1.66,1.15-2.5,1.72-.6-.35-1.21-.69-1.81-1.04-.39-.22-.78-.45-1.17-.67-.23-.13-.4-.25-.69-.18-.62.14-1.25.44-1.84.65-1.02.36-2.03.72-3.05,1.09-.65.23-1.3.46-1.95.7-.43.15-.53.63-.13.87,1.02.62,2.03,1.23,3.05,1.85-.93.67-1.85,1.34-2.78,2.01-.34.25-.1.68.24.79.88.3,1.77.6,2.65.9v4.1c0,.15.1.35.26.41,2,.76,4,1.52,5.99,2.28.25.09.49.21.75.28.02,0,.04,0,.05.01.05.02.11.03.16.03,0,0,.01,0,.02,0,.05,0,.1,0,.15-.01.02,0,.04,0,.06,0,.01,0,.02,0,.03,0,.11-.03.22-.07.36-.12l3.44-1.29,2.88-1.08c.22-.08.39-.23.39-.46v-4.37c.93-.4,1.85-.8,2.78-1.2.38-.16.31-.64,0-.82Zm-6.67,2.65c-.77-.49-1.55-.99-2.32-1.48.97-.38,1.95-.77,2.92-1.15.82-.32,1.64-.65,2.46-.97.75.44,1.51.87,2.26,1.31-1.77.77-3.55,1.53-5.32,2.3Zm-6.48.01c-1.88-.64-3.76-1.28-5.64-1.92.77-.56,1.55-1.12,2.32-1.68,1.8.71,3.6,1.42,5.4,2.13-.69.49-1.39.98-2.08,1.47Zm3.25-6.24c1.68.69,3.37,1.38,5.05,2.08-1.74.69-3.47,1.37-5.21,2.06-1.73-.68-3.46-1.36-5.18-2.05,1.78-.7,3.56-1.39,5.34-2.09Zm3-1.98c1.78.73,3.56,1.45,5.34,2.18-.69.45-1.37.89-2.06,1.34-1.75-.72-3.51-1.44-5.26-2.16.66-.45,1.32-.91,1.98-1.36Zm-6.51-.08l2.5,1.43c-1.05.41-2.11.82-3.16,1.24-.8.31-1.61.63-2.41.94-.87-.53-1.74-1.05-2.6-1.58,1.89-.68,3.79-1.35,5.68-2.03Zm-2.85,11.68v-3.43c.25.09.5.17.75.26.72.25,1.44.52,2.17.74.27.08.45.07.7-.09.28-.18.54-.38.8-.57.42-.3.84-.59,1.26-.89v6.15c-1.89-.72-3.78-1.44-5.68-2.16Zm12.42.04c-1.89.71-3.78,1.42-5.68,2.13v-6.21c.84.54,1.69,1.08,2.53,1.61.16.1.38.07.54,0,.87-.38,1.74-.75,2.61-1.13v3.59Z"/>
</svg>