<?xml version="1.0" encoding="UTF-8"?>
<svg id="Capa_1" data-name="Capa 1" xmlns="http://www.w3.org/2000/svg" viewBox="0 0 24 24">
  <defs>
    <style>
      .cls-1 {
        fill: #754353;
      }
    </style>
  </defs>
  <path class="cls-1" d="m21.06,3.89c-2.19-.81-4.4-1.56-6.6-2.34-1-.36-1.89-.77-3.01-.48-.78.21-1.54.51-2.3.76-2.23.74-4.47,1.47-6.7,2.21-.03.01-.05.03-.08.04-.03,0-.06,0-.09.02-1.23.54-1.31,1.54-1.31,2.62v3.51c0,3.2,1.17,6.13,3.94,8.22,1.63,1.23,3.3,2.42,4.94,3.63.9.66,1.87,1.18,3.06.69.75-.31,1.41-.96,2.03-1.43,1.78-1.36,3.87-2.65,5.38-4.27,2.19-2.34,2.59-5.04,2.59-7.98,0-1.93.55-4.31-1.85-5.2Zm.15,8.79c-.67,2.53-2.53,4.11-4.62,5.7-.92.7-1.83,1.4-2.75,2.1-.53.4-1.4,1.37-2.19,1.16-.66-.17-1.32-.88-1.84-1.26-.92-.68-1.84-1.35-2.77-2.03-.82-.6-1.67-1.18-2.37-1.91-1.47-1.54-2.23-3.5-2.26-5.53-.01-.9,0-1.8,0-2.7,0-.79-.38-2.49.57-2.95,1.55-.51,3.11-1.03,4.66-1.54,1.04-.34,2.08-.69,3.12-1.03.66-.22,1.3-.53,2.01-.34,1.72.47,3.4,1.2,5.07,1.8.89.32,1.79.62,2.67.95.78.29.95.82.95,1.54,0,1.96.26,4.12-.25,6.04Z"/>
  <path class="cls-1" d="m15.35,8.09c-.89.84-1.78,1.67-2.66,2.51-.57.54-1.14,1.08-1.72,1.62-.17.16-.34.33-.52.49,0,0-.02.02-.04.03-.08-.06-.19-.13-.23-.16-.19-.15-.37-.3-.56-.44-.26-.21-.52-.42-.79-.63-.7-.56-1.73.37-1.02.93.54.43,1.08.87,1.63,1.29.58.45,1.35.51,1.93.01.09-.08.18-.17.26-.25,1.2-1.13,2.39-2.26,3.59-3.38.39-.37.78-.73,1.16-1.1.65-.61-.38-1.54-1.02-.93Z"/>
</svg>