<?xml version="1.0" encoding="UTF-8"?>
<svg id="Capa_1" data-name="Capa 1" xmlns="http://www.w3.org/2000/svg" viewBox="0 0 24 24">
  <defs>
    <style>
      .cls-1 {
        fill: #754353;
      }
    </style>
  </defs>
  <path class="cls-1" d="m22.79,9.85c-.78-2.42-2.89-3.54-5.22-3.58.21-.33.42-.66.64-.99.29-.45.59-.91.88-1.36.54-.83-1.1-1.95-1.63-1.12-.74,1.15-1.49,2.31-2.23,3.46h-3.85c-1.71,0-3.42-.04-5.13,0-2.83.06-5.05,2.25-5.13,5.19-.05,1.77-.15,3.65.04,5.42.3,2.77,2.6,4.59,5.21,4.61,3.88.03,7.76,0,11.63,0,2.96-.1,5.01-2.47,5.04-5.46,0-1.09,0-2.18,0-3.26,0-.98.06-1.98-.25-2.92Zm-1.29,6.74c-.15,1.9-1.69,3.26-3.5,3.32h-9.52c-1.29,0-2.85.21-4.02-.45-2.13-1.21-1.81-3.68-1.81-5.8s-.14-4.74,2.36-5.63c1.16-.42,2.69-.2,3.9-.2h5.31c-.99,1.54-1.98,3.07-2.97,4.61-.02.03-.04.07-.06.1-.97-1.07-1.93-2.15-2.9-3.22-.19-.21-.37-.42-.56-.62-.34-.38-1.78.99-1.44,1.37,1.33,1.47,2.69,2.91,3.98,4.42.19.23.33.35.44.43.42.33,1.01.46,1.3,0,1.53-2.38,3.07-4.76,4.6-7.14.69-.02,1.38-.02,2.03.1,1.7.31,2.83,1.84,2.88,3.57.03.87,0,1.75,0,2.62s.06,1.68,0,2.51Z"/>
  <path class="cls-1" d="m13.99,14.71c-.53.12-.86.66-.74,1.21s.64.89,1.17.76c.53-.12.86-.66.74-1.21s-.64-.89-1.17-.76Z"/>
  <path class="cls-1" d="m16.61,14.71c-.53.12-.86.66-.74,1.21s.64.89,1.17.76c.53-.12.86-.66.74-1.21s-.64-.89-1.17-.76Z"/>
  <path class="cls-1" d="m19.22,14.71c-.53.12-.86.66-.74,1.21s.64.89,1.17.76c.53-.12.86-.66.74-1.21s-.64-.89-1.17-.76Z"/>
</svg>