<?xml version="1.0" encoding="UTF-8"?>
<svg id="Capa_1" data-name="Capa 1" xmlns="http://www.w3.org/2000/svg" viewBox="0 0 24 24">
  <defs>
    <style>
      .cls-1 {
        fill: #754353;
      }
    </style>
  </defs>
  <path class="cls-1" d="m22.79,8.17c-.79-2.42-2.97-3.53-5.35-3.53h-6.07c-1.71,0-3.42-.04-5.13,0-2.83.06-5.05,2.21-5.13,5.11-.05,1.74-.15,3.59.04,5.33.3,2.72,2.6,4.51,5.21,4.54,3.88.03,7.76,0,11.63,0,2.96-.1,5.01-2.42,5.04-5.36,0-1.07,0-2.14,0-3.21,0-.96.06-1.94-.25-2.87Zm-1.29,6.63c-.15,1.87-1.69,3.21-3.5,3.27h-9.52c-1.29,0-2.85.21-4.02-.44-2.13-1.19-1.81-3.62-1.81-5.7s-.14-4.66,2.36-5.54c1.16-.41,2.69-.19,3.9-.19h6.09c1.17,0,2.47-.15,3.64.05,1.7.3,2.83,1.81,2.88,3.51.03.86,0,1.72,0,2.58s.06,1.65,0,2.46Z"/>
  <path class="cls-1" d="m20.42,9.94H3.77c-1.26,0-1.26,1.99,0,1.99h16.66c1.26,0,1.26-1.99,0-1.99h0Z"/>
  <ellipse class="cls-1" cx="14.21" cy="13.92" rx=".99" ry=".98" transform="translate(.21 28.05) rotate(-89.68)"/>
  <ellipse class="cls-1" cx="16.82" cy="13.92" rx=".99" ry=".98" transform="translate(2.81 30.66) rotate(-89.68)"/>
  <ellipse class="cls-1" cx="19.44" cy="13.92" rx=".99" ry=".98" transform="translate(5.42 33.28) rotate(-89.68)"/>
</svg>