<?xml version="1.0" encoding="UTF-8"?>
<svg id="Capa_1" data-name="Capa 1" xmlns="http://www.w3.org/2000/svg" viewBox="0 0 24 24">
  <defs>
    <style>
      .cls-1 {
        fill: #744353;
      }
    </style>
  </defs>
  <path class="cls-1" d="m21.82,16.18c-.46-.85-1.46-1.29-2.28-1.75-.86-.49-1.89-.98-2.92-.75-.92.21-1.4,1-1.88,1.72-.39.59-.72.51-1.36.22-.51-.23-1.01-.5-1.48-.8-.98-.61-1.85-1.36-2.6-2.22-.34-.39-.65-.79-.94-1.22-.29-.42-.44-.51-.12-1.07.11-.18.31-.35.44-.52.64-.83.85-1.67.57-2.68-.41-1.47-1.35-3.77-3.14-3.97-1.96-.23-3.43,1.63-3.88,3.27-.6,2.22.35,4.31,1.55,6.17,2.61,4.04,6.71,7.21,11.54,8.36,2.2.52,4.72-.1,6.05-1.98.56-.79.92-1.89.44-2.79Zm-2.44,3.24c-1.93,1.19-4.03.58-6.01-.16-3.87-1.45-7.05-4.41-9.1-7.86-1.07-1.8-1.74-3.98-.51-5.88.5-.77,1.46-1.65,2.49-1.29.83.29,1.19,1.33,1.52,2.04.44.95.83,1.84.16,2.79-.41.58-1.14,1.06-1,1.84.12.69.75,1.36,1.18,1.9.51.64,1.08,1.24,1.71,1.77.7.59,1.46,1.12,2.27,1.55.62.33,1.58.94,2.33.85.71-.08,1.04-.75,1.38-1.27.37-.55.66-1.02,1.4-1.03.66-.01,1.25.33,1.8.64.6.34,1.5.67,1.85,1.29.59,1.04-.65,2.31-1.47,2.81Z"/>
</svg>