<?xml version="1.0" encoding="UTF-8"?>
<svg id="Capa_1" data-name="Capa 1" xmlns="http://www.w3.org/2000/svg" viewBox="0 0 24 24">
  <defs>
    <style>
      .cls-1 {
        fill: #754353;
      }
    </style>
  </defs>
  <path class="cls-1" d="m22.8,17c-3.99-3.63-9.22-4.91-14.32-3.74-2.66.68-5.07,2-7.17,3.89-.36.32-.32,1.01,0,1.34,6.02,6.22,15.55,6.2,21.49-.15.32-.34.36-1.01,0-1.34Zm-19.47.87c1.68-1.33,3.57-2.26,5.62-2.78,4.13-.95,8.45-.04,11.85,2.64-5.02,4.62-12.38,4.66-17.47.14Z"/>
  <path class="cls-1" d="m13.02,11.76c2.33-.45,3.99-2.76,4.02-5.27-.03-2.26-1.32-4.24-3.28-5.04-1.91-.78-4.23-.12-5.52,1.59-1.33,1.75-1.57,4.24-.48,6.2,1.09,1.95,3.19,2.92,5.26,2.52Zm-3.74-7.05c.67-1.21,2.03-1.9,3.32-1.64,1.56.31,2.65,1.75,2.68,3.43-.02,1.42-.84,2.78-2.09,3.26-1.33.51-2.79.09-3.67-1.1-.82-1.1-.91-2.72-.23-3.95Z"/>
</svg>