<?xml version="1.0" encoding="UTF-8"?>
<svg id="Capa_1" data-name="Capa 1" xmlns="http://www.w3.org/2000/svg" viewBox="0 0 24 24">
  <defs>
    <style>
      .cls-1 {
        fill: #754353;
        fill-rule: evenodd;
      }
    </style>
  </defs>
  <g id="WA_Logo" data-name="WA Logo">
    <path class="cls-1" d="m19.74,4.23C10.79-4.65-3.74,6.45,2.53,17.36l-1.55,5.64,5.8-1.51c10.96,5.91,21.77-8.46,12.97-17.26Zm-12.7,15.29l-3.44.9.92-3.34C-1.61,8.06,10.64-2.12,18.44,5.53c7.58,7.64-2.31,19.77-11.39,13.99Zm8.08-6.2c-.64-.35-1.09.95-1.48,1.2-.89.73-4-2.26-4.31-3.17-.16-.27-.02-.42.12-.56,1.34-1.17.35-1.83-.18-3.43-.25-.75-1.43-.58-1.87-.14-3.41,3.28,3.46,10.31,8.11,9.87,1.14-.11,2.37-1.55,2-2.59-.4-.34-1.9-.96-2.39-1.2Z"/>
  </g>
</svg>